<svg width="1440" height="326" viewBox="0 0 1440 326" fill="none" xmlns="http://www.w3.org/2000/svg">
<rect width="1440" height="326" fill="#1F2022"/>
<path d="M110.059 316.245L110.078 316.25L110.098 316.254C128.884 320.233 157.657 324.104 193.928 326H290.26C361.972 322.494 447.019 310.818 536.193 284.074L536.21 284.069L536.227 284.063C560.701 275.774 590.509 277.098 617.911 282.181C645.293 287.261 670.147 296.069 684.641 302.626L684.7 302.652L684.762 302.671C729.517 316.286 777.991 313.235 830.716 309.917L830.775 309.913C833.048 309.77 835.329 309.626 837.617 309.484C893.06 306.027 953.281 303.037 1019.25 318.945C1027.78 322.217 1036.66 324.487 1046.26 326H1065.17C1048.02 324.928 1033.52 322.281 1019.9 317.055L1019.84 317.032L1019.78 317.016C953.468 301.014 892.957 304.029 837.493 307.488C835.262 307.627 833.039 307.767 830.825 307.906L830.741 307.911C777.906 311.234 729.788 314.261 685.406 300.777C670.77 294.162 645.792 285.319 618.275 280.215C590.747 275.108 560.549 273.72 535.602 282.163C344.591 339.446 172.59 327.441 110.532 314.302C63.5092 302.31 33.874 282.372 24.0338 259.043C14.2582 235.868 23.8426 208.797 56.6464 181.985C103.737 143.496 141.882 133.936 186.326 122.798C193.813 120.922 201.479 119 209.397 116.888C263.63 102.423 329.334 79.0662 429.504 0H426.271C327.453 77.6244 262.511 100.652 208.881 114.956C201.001 117.058 193.357 118.973 185.88 120.846C141.405 131.988 102.836 141.65 55.3807 180.437C22.29 207.483 11.9047 235.434 22.1911 259.82C32.4114 284.05 62.8625 304.213 110.059 316.245Z" fill="#2C2E32"/>
<path d="M341.165 0C253.922 63.204 187.054 81.5471 130.971 94.6648C126.884 95.6207 122.856 96.5487 118.883 97.464L118.881 97.4645C74.1496 107.77 36.3736 116.472 0 145.384L0 142.839C36.3692 114.413 74.1789 105.706 118.365 95.5304C122.362 94.61 126.411 93.6775 130.515 92.7174C185.973 79.7458 251.896 61.6855 337.747 0H341.165Z" fill="#2C2E32"/>
<path d="M243.056 0C186.81 34.4586 129.312 52.8355 82.3231 65.2585C70.2226 68.4577 58.816 71.2628 48.3102 73.8447L48.075 73.9025C37.6572 76.4629 28.1354 78.803 19.6907 81.0947C12.2244 83.1209 5.61992 85.104 0 87.1601L0 85.0325C5.54706 83.0365 11.9795 81.115 19.1669 79.1645C27.6347 76.8666 37.176 74.5217 47.5811 71.9644L47.8329 71.9025C58.34 69.3202 69.7306 66.5191 81.8119 63.325C127.942 51.129 184.098 33.2147 239.205 0H243.056Z" fill="#2C2E32"/>
<path d="M114.532 0C92.911 8.66521 50.0862 23.4102 0 33.9575L0 31.9135C46.3692 22.1198 86.45 8.73751 109.067 0H114.532Z" fill="#2C2E32"/>
<path d="M11.0501 0H5.77214C3.74799 0.979097 1.81817 2.12252 0 3.41296L0 5.89865C3.30063 3.36528 7.02571 1.35737 11.0501 0Z" fill="#2C2E32"/>
<path d="M21.4144 326C13.269 322.858 5.9814 317.99 0 311.845L0 308.924C7.3494 317.038 16.9635 323.062 27.8448 326H21.4144Z" fill="#2C2E32"/>
<path d="M1440 311.845C1434.02 317.99 1426.73 322.858 1418.59 326H1412.16C1423.04 323.062 1432.65 317.038 1440 308.924V311.845Z" fill="#2C2E32"/>
<path d="M1428.18 0C1432.48 1.88242 1436.46 4.37808 1440 7.3766V10.0403C1435.02 5.49038 1429.04 2.02019 1422.42 0H1428.18Z" fill="#2C2E32"/>
<path d="M1167.94 0H1161.78C1211.04 17.2617 1321.3 45.548 1440 45.2829V43.2829C1325.8 43.5388 1219.41 17.296 1167.94 0Z" fill="#2C2E32"/>
<path d="M1440 77.3848C1414.36 74.7415 1379.42 74.5102 1362.15 74.8188C1194.52 70.8124 1086.45 26.7789 1033.76 0H1029.37C1080.92 26.6695 1190.36 72.7169 1362.12 76.8187L1362.14 76.8192L1362.16 76.8189C1379.51 76.5081 1414.51 76.7487 1440 79.3944V77.3848Z" fill="#2C2E32"/>
<path d="M1440 119.507C1430.06 116.403 1418.35 115.468 1403.58 114.971C1398.95 114.815 1394.02 114.703 1388.73 114.582C1366.04 114.065 1336.92 113.402 1297.99 108.537C1268.07 104.797 1194.63 92.8897 1118.39 73.6881C1080.26 64.0875 1041.46 52.6678 1007.05 39.5405C976.005 27.6979 948.596 14.4859 928.497 0L925.114 0C945.612 15.2813 974.091 29.1083 1006.33 41.4092C1040.84 54.5739 1079.73 66.0156 1117.9 75.6275C1194.23 94.8509 1267.75 106.773 1297.74 110.521C1336.78 115.4 1366.02 116.066 1388.71 116.583C1393.99 116.703 1398.91 116.815 1403.52 116.97C1418.6 117.478 1430.25 118.449 1440 121.604V119.507Z" fill="#2C2E32"/>
<path d="M1440 175.926C1423.17 163.28 1401.64 158.236 1370.97 154.419C1359.72 153.019 1347.23 151.782 1333.27 150.4C1294.31 146.543 1243.89 141.552 1176.99 128.695C1098.4 113.592 1022.79 93.553 960.683 70.6188C902.186 49.0179 855.804 24.8959 830.143 0H827.294C852.977 25.7324 900.364 50.4769 959.99 72.4949C1022.22 95.476 1097.94 115.541 1176.61 130.66C1243.61 143.535 1294.17 148.54 1333.15 152.399C1347.08 153.778 1359.53 155.011 1370.73 156.404C1402.04 160.301 1423.43 165.446 1440 178.447V175.926Z" fill="#2C2E32"/>
<path d="M685.449 0H673.063C738.402 10.2263 764.024 21.3522 780.664 32.9047C785.761 36.4429 790.054 40.0596 794.412 43.7313C805.669 53.2154 817.363 63.0669 844.469 72.8845L844.483 72.8897L844.498 72.8944C854.185 76.0748 863.637 79.1828 872.87 82.2187L872.924 82.2364C1070.61 147.239 1167.9 179.23 1328.43 181.824L1328.44 181.824H1328.45C1367.17 181.824 1399.72 199.047 1409.96 223.774C1415.06 236.099 1414.67 250.396 1406.64 265.578C1398.59 280.786 1382.86 296.9 1357.23 312.713C1348.64 318.018 1338.44 320.363 1328.27 320.247C1251.46 319.367 1194.77 322.157 1150.91 324.315L1150.91 324.315C1141.35 324.785 1132.4 325.226 1123.99 325.592C1120.54 325.741 1117.19 325.878 1113.93 326H1157.37C1200.31 323.897 1255.15 321.409 1328.25 322.247C1338.72 322.367 1349.31 319.952 1358.28 314.415C1384.09 298.49 1400.14 282.143 1408.41 266.513C1416.69 250.855 1417.15 235.934 1411.8 223.009C1401.14 197.236 1367.6 179.826 1328.45 179.824C1168.23 177.234 1071.22 145.333 873.447 80.303C864.234 77.2738 854.802 74.1724 845.136 70.9989C818.395 61.3116 807.058 51.7576 795.876 42.3347C791.472 38.6234 787.092 34.9325 781.805 31.2618C765.888 20.2112 742.109 9.70048 685.449 0Z" fill="#2C2E32"/>
<path d="M545.779 0H538.971C530.288 2.97731 521.949 7.11437 513.666 12.0667C500.897 19.7017 488.211 29.3085 474.597 39.6179C471.315 42.1031 467.979 44.6292 464.575 47.1783C429.497 73.4482 386.894 102.404 320.416 115.522C280.993 123.302 242.659 141.654 222.026 164.226C211.702 175.522 205.724 187.974 206.417 200.752C207.112 213.55 214.485 226.423 230.32 238.575C233.506 241.02 237.081 242.969 240.799 244.432C289.794 263.705 351.701 265.023 410.767 259.351C469.856 253.677 526.232 240.994 564.214 232.169C660.854 209.716 747.707 199.316 856.244 249.925L856.3 249.951L856.359 249.97C914.785 268.872 967.758 278.094 1017.09 285.909C1022.27 286.727 1027.39 287.531 1032.49 288.328L1032.53 288.336C1076.03 295.148 1116.73 301.522 1156.06 313.385C1158.91 314.245 1161.84 314.962 1164.84 315.336C1216.38 321.758 1270.4 299.706 1297.07 273.434C1310.37 260.331 1317.14 245.877 1312.82 233.245C1308.5 220.625 1293.32 210.466 1264.34 205.412C1239.78 201.129 1216.83 199.962 1190.94 198.644C1121.17 195.094 1030.09 190.459 828.876 120.842C821.315 118.226 814.264 113.925 808.084 108.77C766.565 74.1355 712.575 50.6522 663.004 41.2464C638.215 36.5429 614.496 35.3528 593.968 38.0689C573.45 40.7837 556.041 47.4123 543.969 58.4188C505.425 93.5595 430.682 134.074 367.791 150.019C348.968 154.791 335.931 162.244 329.109 170.634C325.689 174.841 323.811 179.311 323.6 183.802C323.389 188.301 324.856 192.725 327.958 196.817C334.134 204.961 346.799 211.821 365.945 215.705C385.126 219.596 410.955 220.531 443.664 216.689C466.821 213.969 491.97 208.206 518.665 201.728C522.734 200.741 526.839 199.737 530.979 198.724L530.993 198.721C554.027 193.088 578.14 187.191 603.116 182.426C662.048 171.183 725.673 166.272 790.851 186.043C817.78 194.211 848.361 204.159 879.736 214.365L879.738 214.365C907.184 223.293 935.237 232.418 961.983 240.723C990.613 249.612 1017.71 257.55 1040.88 263.266C1064.02 268.976 1083.31 272.492 1096.3 272.492V270.492C1083.58 270.492 1064.49 267.033 1041.36 261.325C1018.25 255.623 991.194 247.698 962.576 238.813C935.909 230.533 907.857 221.408 880.397 212.476C848.98 202.258 818.338 192.291 791.432 184.129C725.809 164.223 661.816 169.192 602.741 180.461C577.71 185.237 553.541 191.148 530.508 196.781C526.366 197.794 522.26 198.798 518.193 199.785C491.493 206.264 466.452 211.999 443.43 214.703C410.866 218.528 385.259 217.582 366.342 213.745C347.39 209.9 335.296 203.184 329.552 195.608C326.695 191.84 325.411 187.868 325.598 183.896C325.784 179.917 327.451 175.844 330.661 171.896C337.099 163.978 349.663 156.678 368.283 151.958C431.467 135.938 506.511 95.2757 545.316 59.8968C556.984 49.2592 573.952 42.7346 594.231 40.0516C614.499 37.3699 637.998 38.5374 662.631 43.2113C711.902 52.5603 765.572 75.911 806.803 110.306C813.131 115.584 820.39 120.022 828.222 122.732C1029.73 192.452 1121.22 197.109 1191.01 200.661C1216.82 201.975 1239.66 203.138 1264 207.382C1292.85 212.413 1306.99 222.385 1310.93 233.892C1314.86 245.385 1308.82 259.051 1295.66 272.01C1269.43 297.86 1216.01 319.697 1165.08 313.351C1162.24 312.996 1159.42 312.311 1156.64 311.47C1117.17 299.565 1076.33 293.169 1032.85 286.361C1027.74 285.561 1022.59 284.755 1017.41 283.933C968.107 276.124 915.281 266.925 857.033 248.086C747.928 197.23 660.56 207.731 563.762 230.221C525.785 239.044 469.522 251.7 410.576 257.36C351.606 263.023 290.081 261.669 241.531 242.57C237.967 241.169 234.559 239.307 231.537 236.988C215.997 225.063 209.068 212.676 208.414 200.644C207.76 188.591 213.388 176.641 223.503 165.576C243.749 143.425 281.631 125.215 320.803 117.485C387.718 104.28 430.609 75.1145 465.774 48.7791C469.201 46.2127 472.552 43.6754 475.843 41.1837L475.845 41.182C489.451 30.8794 502.026 21.3566 514.692 13.7833C524.844 7.71334 535.021 2.91725 545.779 0Z" fill="#2C2E32"/>
</svg>
