<svg width="22" height="22" viewBox="0 0 22 22" fill="none" xmlns="http://www.w3.org/2000/svg">
<path fill-rule="evenodd" clip-rule="evenodd" d="M9.85417 1.83325C9.85417 1.45356 9.54635 1.14575 9.16667 1.14575C8.78698 1.14575 8.47917 1.45356 8.47917 1.83325V3.66659C8.47917 4.04628 8.78698 4.35409 9.16667 4.35409C9.54635 4.35409 9.85417 4.04628 9.85417 3.66659V1.83325ZM13.5208 4.58325C13.5208 4.20356 13.213 3.89575 12.8333 3.89575C12.4537 3.89575 12.1458 4.20356 12.1458 4.58325V6.41659C12.1458 6.79628 12.4537 7.10409 12.8333 7.10409C13.213 7.10409 13.5208 6.79628 13.5208 6.41659V4.58325ZM6.61337 6.15864C6.9772 6.05 7.18407 5.667 7.07543 5.30317C6.9668 4.93936 6.5838 4.73249 6.21997 4.84111C5.33743 5.10462 4.56477 5.45207 3.99737 5.88265C3.43927 6.30619 2.97917 6.89279 2.97917 7.63226C2.97917 11.1464 4.8279 14.2233 7.5625 15.6601V18.3432C7.5625 20.2147 9.53985 21.4166 11.209 20.5877L13.0423 19.6772C13.8957 19.2534 14.4375 18.3853 14.4375 17.4327V15.6601C17.1721 14.2233 19.0208 11.1464 19.0208 7.63226C19.0208 6.89279 18.5608 6.30619 18.0026 5.88265C17.4353 5.45207 16.6626 5.10462 15.7801 4.84111C15.4162 4.73249 15.0332 4.93936 14.9246 5.30317C14.8159 5.667 15.0228 6.05 15.3866 6.15864C16.1806 6.3957 16.783 6.68316 17.1715 6.97797C17.5692 7.27983 17.6458 7.50913 17.6458 7.63226C17.6458 7.74032 17.5895 7.927 17.3027 8.17952C17.017 8.43108 16.5642 8.68898 15.9455 8.91944C14.7132 9.37843 12.9649 9.67625 11 9.67625C9.03513 9.67625 7.28678 9.37843 6.05452 8.91944C5.43579 8.68898 4.98299 8.43108 4.69733 8.17952C4.41057 7.927 4.35417 7.74032 4.35417 7.63226C4.35417 7.50913 4.43081 7.27983 4.82858 6.97797C5.21706 6.68316 5.81939 6.3957 6.61337 6.15864ZM9.16667 5.72909C9.54635 5.72909 9.85417 6.03689 9.85417 6.41659V7.33325C9.85417 7.71294 9.54635 8.02075 9.16667 8.02075C8.78698 8.02075 8.47917 7.71294 8.47917 7.33325V6.41659C8.47917 6.03689 8.78698 5.72909 9.16667 5.72909Z" fill="#4573FD"/>
</svg>
