<svg width="375" height="1304" viewBox="0 0 375 1304" fill="none" xmlns="http://www.w3.org/2000/svg">
<rect width="375" height="1304" fill="#1F2022"/>
<path d="M28.6611 1264.98L28.6663 1265L28.6715 1265.02C33.5636 1280.93 41.0565 1296.42 50.502 1304H75.5885C94.2635 1289.97 116.411 1243.27 139.634 1136.3L139.638 1136.28L139.642 1136.25C146.016 1103.1 153.778 1108.39 160.914 1128.72C168.045 1149.04 174.517 1184.28 178.292 1210.5L178.307 1210.61L178.324 1210.69C189.979 1265.14 202.602 1252.94 216.332 1239.67L216.348 1239.65C216.94 1239.08 217.533 1238.51 218.129 1237.93C232.568 1224.11 248.25 1212.15 265.428 1275.78C267.652 1288.87 269.963 1297.95 272.464 1304H277.388C272.923 1299.71 269.146 1289.12 265.599 1268.22L265.583 1268.13L265.567 1268.07C248.299 1204.06 232.541 1216.12 218.097 1229.95C217.516 1230.51 216.937 1231.07 216.361 1231.62L216.339 1231.64C202.58 1244.94 190.049 1257.04 178.491 1203.11C174.68 1176.65 168.175 1141.28 161.009 1120.86C153.84 1100.43 145.976 1094.88 139.48 1128.65C89.7373 1357.78 44.9454 1309.77 28.7845 1257.21C16.5389 1209.24 8.82136 1129.49 6.25881 1036.17C3.71308 943.47 6.209 835.19 14.7517 727.942C27.0149 573.984 36.9485 535.745 48.5224 491.192C50.4721 483.686 52.4686 476.001 54.5304 467.554C68.6535 409.692 85.7641 316.265 111.85 0H111.008C85.2741 310.498 68.3621 402.606 54.3962 459.824C52.3439 468.232 50.3534 475.892 48.4064 483.384C36.8242 527.951 26.7801 566.6 14.4221 721.747C5.80467 829.933 3.10019 941.736 5.77892 1039.28C8.44046 1136.2 16.3704 1216.85 28.6611 1264.98Z" fill="#2C2E32"/>
<path d="M88.8451 0C66.1256 252.816 48.7119 326.188 34.107 378.659C33.0428 382.483 31.9938 386.195 30.9592 389.856L30.9586 389.858C19.3098 431.079 9.47229 465.89 0 581.536L0 571.355C9.47115 457.651 19.3174 422.823 30.8241 382.122C31.865 378.44 32.9194 374.71 33.9884 370.87C48.4305 318.983 65.5979 246.742 87.955 0H88.8451Z" fill="#2C2E32"/>
<path d="M63.296 0C48.6484 137.834 33.675 211.342 21.4383 261.034C18.2871 273.831 15.3167 285.051 12.5808 295.379L12.5195 295.61C9.80655 305.852 7.32692 315.212 5.12778 324.379C3.18343 332.484 1.46352 340.416 0 348.64L0 340.13C1.44455 332.146 3.11965 324.46 4.99137 316.658C7.19654 307.466 9.68124 298.087 12.3909 287.858L12.4565 287.61C15.1927 277.281 18.159 266.076 21.3052 253.3C33.3182 204.516 47.9421 132.859 62.293 0H63.296Z" fill="#2C2E32"/>
<path d="M29.826 0C24.1956 34.6608 13.0433 93.6408 0 135.83L0 127.654C12.0753 88.4793 22.513 34.95 28.403 0H29.826Z" fill="#2C2E32"/>
<path d="M2.87764 0H1.50316C0.976039 3.91639 0.473481 8.4901 0 13.6518L0 23.5946C0.85954 13.4611 1.82961 5.42948 2.87764 0Z" fill="#2C2E32"/>
<path d="M5.57666 1304C3.45546 1291.43 1.55766 1271.96 0 1247.38L0 1235.69C1.91391 1268.15 4.41757 1292.25 7.25126 1304H5.57666Z" fill="#2C2E32"/>
<path d="M375 1247.38C373.442 1271.96 371.544 1291.43 369.423 1304H367.749C370.582 1292.25 373.086 1268.15 375 1235.69V1247.38Z" fill="#2C2E32"/>
<path d="M371.921 0C373.043 7.52968 374.079 17.5123 375 29.5064V40.161C373.703 21.9615 372.145 8.08077 370.422 0H371.921Z" fill="#2C2E32"/>
<path d="M304.152 0H302.547C315.375 69.0466 344.089 182.192 375 181.132V173.132C345.261 174.155 317.554 69.1839 304.152 0Z" fill="#2C2E32"/>
<path d="M375 309.539C368.322 298.966 359.223 298.041 354.726 299.275C311.074 283.25 282.929 107.116 269.208 0H268.066C281.49 106.678 309.99 290.868 354.719 307.275L354.724 307.277L354.73 307.275C359.248 306.033 368.362 306.995 375 317.578V309.539Z" fill="#2C2E32"/>
<path d="M375 478.027C372.412 465.613 369.362 461.873 365.517 459.885C364.311 459.262 363.025 458.812 361.649 458.33C355.741 456.262 348.155 453.607 338.019 434.147C330.228 419.189 311.102 371.559 291.246 294.752C281.319 256.35 271.213 210.671 262.252 158.162C254.168 110.792 247.03 57.9435 241.796 0L240.915 0C246.253 61.1254 253.67 116.433 262.066 165.637C271.053 218.296 281.18 264.062 291.119 302.51C310.997 379.404 330.144 427.091 337.954 442.085C348.119 461.6 355.734 464.264 361.643 466.331C363.017 466.812 364.299 467.26 365.499 467.881C369.427 469.911 372.461 473.796 375 486.418V478.027Z" fill="#2C2E32"/>
<path d="M375 703.702C370.618 653.121 365.01 632.944 357.024 617.676C354.094 612.074 350.841 607.129 347.206 601.601C337.059 586.171 323.929 566.207 306.508 514.782C286.042 454.367 266.352 374.212 250.178 282.475C234.944 196.072 222.866 99.5834 216.183 0H215.441C222.129 102.93 234.47 201.908 249.997 289.98C266.204 381.904 285.923 462.162 306.41 522.638C323.857 574.14 337.024 594.162 347.175 609.595C350.803 615.112 354.045 620.042 356.96 625.615C365.115 641.205 370.684 661.784 375 713.789V703.702Z" fill="#2C2E32"/>
<path d="M178.502 0H175.277C192.292 40.9052 198.965 85.4088 203.298 131.619C204.625 145.772 205.743 160.238 206.878 174.925C209.81 212.861 212.855 252.268 219.914 291.538L219.917 291.559L219.921 291.578C222.444 304.299 224.905 316.731 227.31 328.875L227.324 328.945C278.804 588.956 304.14 716.919 345.945 727.294L345.947 727.295H345.95C356.034 727.295 364.511 796.187 367.176 895.094C368.504 944.395 368.404 1001.58 366.313 1062.31C364.217 1123.15 360.119 1187.6 353.446 1250.85C351.207 1272.07 348.551 1281.45 345.903 1280.99C325.9 1277.47 311.137 1288.63 299.716 1297.26L299.716 1297.26C297.227 1299.14 294.896 1300.9 292.705 1302.37C291.809 1302.97 290.936 1303.51 290.085 1304H301.399C312.582 1295.59 326.863 1285.64 345.897 1288.99C348.626 1289.47 351.383 1279.81 353.72 1257.66C360.44 1193.96 364.62 1128.57 366.773 1066.05C368.93 1003.42 369.05 943.737 367.657 892.035C364.879 788.943 356.146 719.305 345.952 719.295C304.228 708.936 278.963 581.333 227.46 321.212C225.061 309.095 222.605 296.689 220.087 283.996C213.124 245.246 210.171 207.03 207.259 169.339C206.113 154.494 204.972 139.73 203.595 125.047C199.45 80.845 193.257 38.8019 178.502 0Z" fill="#2C2E32"/>
<path d="M142.13 0H140.357C138.096 11.9093 135.924 28.4575 133.767 48.267C130.442 78.8069 127.138 117.234 123.593 158.472C122.738 168.412 121.87 178.517 120.983 188.713C111.848 293.793 100.754 409.615 83.4417 462.09C73.1754 493.208 63.1925 566.614 57.8194 656.905C55.1306 702.087 53.5738 751.895 53.7545 803.008C53.9355 854.201 55.8554 905.692 59.9791 954.299C60.8087 964.078 61.7399 971.876 62.7081 977.727C75.4672 1054.82 91.5888 1060.09 106.971 1037.4C122.358 1014.71 137.04 963.975 146.931 928.676C172.097 838.864 194.715 797.264 222.98 999.699L222.995 999.804L223.01 999.88C238.225 1075.49 252.02 1112.38 264.868 1143.63C266.215 1146.91 267.551 1150.12 268.877 1153.31L268.889 1153.34C280.216 1180.59 290.816 1206.09 301.057 1253.54C301.8 1256.98 302.563 1259.85 303.343 1261.34C316.765 1287.03 330.834 1198.83 337.778 1093.74C341.241 1041.33 343.006 983.509 341.881 932.979C340.756 882.502 336.803 841.863 329.255 821.646C322.861 804.518 316.883 799.846 310.142 794.577C291.972 780.376 268.253 761.837 215.853 483.366C213.884 472.902 212.048 455.7 210.438 435.079C199.626 296.542 185.566 202.609 172.657 164.986C166.202 146.172 160.025 141.411 154.679 152.276C149.336 163.135 144.802 189.649 141.659 233.675C131.621 374.238 112.157 536.297 95.779 600.076C90.8772 619.165 87.4821 648.976 85.7055 682.537C84.8148 699.364 84.3257 717.245 84.2708 735.209C84.2159 753.203 84.5978 770.9 85.4058 787.267C87.014 819.846 90.3123 847.284 95.2981 862.819C100.293 878.384 107.02 882.126 115.537 866.757C121.568 855.876 128.117 832.823 135.069 806.914C136.129 802.964 137.198 798.948 138.276 794.898L138.279 794.884C144.278 772.351 150.557 748.762 157.061 729.704C172.408 684.734 188.977 665.087 205.951 744.171C212.964 776.845 220.927 816.636 229.098 857.459L229.098 857.462C236.246 893.172 243.551 929.673 250.516 962.891C257.972 998.449 265.029 1030.2 271.062 1053.07C277.087 1075.91 282.113 1089.97 285.495 1089.97V1081.97C282.182 1081.97 277.21 1068.13 271.186 1045.3C265.169 1022.49 258.123 990.793 250.671 955.251C243.726 922.131 236.421 885.634 229.27 849.906C221.089 809.03 213.109 769.163 206.102 736.516C189.013 656.892 172.348 676.767 156.964 721.845C150.445 740.946 144.151 764.59 138.153 787.123C137.074 791.176 136.005 795.192 134.946 799.139C127.993 825.054 121.472 847.994 115.477 858.812C106.996 874.113 100.328 870.329 95.4017 854.979C90.4662 839.601 87.3167 812.737 85.8208 782.434C85.0767 767.36 84.7426 751.471 84.7911 735.584C84.8397 719.668 85.2738 703.375 86.1096 687.584C87.7863 655.91 91.0581 626.714 95.907 607.831C112.361 543.754 131.904 381.103 142.009 239.587C145.048 197.037 149.467 170.939 154.748 160.206C160.026 149.48 166.145 154.15 172.56 172.845C185.391 210.241 199.368 303.644 210.105 441.222C211.753 462.337 213.643 480.087 215.683 490.926C268.16 769.81 291.984 788.436 310.16 802.646C316.88 807.9 322.828 812.55 329.166 829.528C336.679 849.651 340.363 889.541 341.388 935.568C342.412 981.541 340.838 1036.21 337.412 1088.04C330.58 1191.44 316.669 1278.79 303.408 1253.4C302.666 1251.98 301.933 1249.24 301.208 1245.88C290.93 1198.26 280.293 1172.68 268.972 1145.44C267.641 1142.24 266.3 1139.02 264.95 1135.73C252.111 1104.5 238.354 1067.7 223.186 992.344C194.773 788.919 172.021 830.924 146.813 920.883C136.923 956.177 122.271 1006.8 106.921 1029.44C91.5641 1052.09 75.542 1046.68 62.8988 970.282C61.9707 964.674 61.0831 957.228 60.2962 947.952C56.2492 900.25 54.4447 850.704 54.2746 802.574C54.1042 754.365 55.5697 706.565 58.2038 662.302C63.4764 573.701 73.3413 500.859 83.5425 469.938C100.968 417.119 112.138 300.458 121.295 195.117C122.188 184.851 123.06 174.701 123.917 164.735L123.918 164.728C127.461 123.517 130.736 85.4263 134.034 55.1332C136.678 30.8534 139.328 11.669 142.13 0Z" fill="#2C2E32"/>
</svg>
