<svg width="22" height="22" viewBox="0 0 22 22" fill="none" xmlns="http://www.w3.org/2000/svg">
<path fill-rule="evenodd" clip-rule="evenodd" d="M5.49999 1.83325C3.47495 1.83325 1.83333 3.47487 1.83333 5.49992V16.4999C1.83333 18.5249 3.47495 20.1666 5.49999 20.1666H16.5C18.525 20.1666 20.1667 18.5249 20.1667 16.4999V5.49992C20.1667 3.47487 18.525 1.83325 16.5 1.83325H5.49999ZM11.6876 5.49992C11.6876 5.12023 11.3798 4.81242 11.0001 4.81242C10.6204 4.81242 10.3126 5.12023 10.3126 5.49992V6.69973C9.34862 6.85262 8.48997 7.32189 7.84636 7.9978L6.45784 7.19614C6.12901 7.00629 5.70855 7.11895 5.51869 7.44778C5.32885 7.77661 5.44151 8.19707 5.77034 8.38692L7.06475 9.13425C6.7962 9.69972 6.64594 10.3323 6.64594 10.9999C6.64594 11.6675 6.79619 12.3001 7.06474 12.8655L5.77034 13.6129C5.44151 13.8027 5.32885 14.2232 5.51869 14.552C5.70855 14.8808 6.12901 14.9935 6.45784 14.8036L7.84632 14.002C8.48993 14.678 9.34862 15.1472 10.3126 15.3001V16.4999C10.3126 16.8796 10.6204 17.1874 11.0001 17.1874C11.3798 17.1874 11.6876 16.8796 11.6876 16.4999V15.3001C12.6516 15.1472 13.5103 14.678 14.1539 14.002L15.5423 14.8036C15.8711 14.9935 16.2915 14.8808 16.4814 14.5519C16.6712 14.2231 16.5586 13.8026 16.2298 13.6128L14.9354 12.8655C15.204 12.3001 15.3543 11.6675 15.3543 10.9999C15.3543 10.3323 15.204 9.69972 14.9354 9.13424L16.2298 8.38698C16.5586 8.19713 16.6712 7.77666 16.4814 7.44783C16.2915 7.11901 15.8711 7.00634 15.5423 7.19619L14.1539 7.99779C13.5102 7.32189 12.6516 6.85262 11.6876 6.69973V5.49992ZM8.02094 10.9999C8.02094 9.35459 9.35476 8.02075 11.0001 8.02075C12.6454 8.02075 13.9793 9.35459 13.9793 10.9999C13.9793 12.6452 12.6454 13.9791 11.0001 13.9791C9.35476 13.9791 8.02094 12.6452 8.02094 10.9999Z" fill="#4573FD"/>
</svg>
