<svg width="22" height="22" viewBox="0 0 22 22" fill="none" xmlns="http://www.w3.org/2000/svg">
<path fill-rule="evenodd" clip-rule="evenodd" d="M14.832 20.1666H7.16802C5.05167 20.1666 3.33603 18.5294 3.33603 16.5098V12.0385C3.33603 11.3893 3.06577 10.7667 2.58472 10.3076C1.47017 9.24404 1.61506 7.4818 2.88981 6.59709L8.74614 2.53267C10.0898 1.60011 11.9102 1.60011 13.2539 2.53267L19.1102 6.59708C20.3849 7.4818 20.5299 9.24404 19.4153 10.3076C18.9342 10.7667 18.664 11.3893 18.664 12.0385V16.5098C18.664 18.5294 16.9484 20.1666 14.832 20.1666ZM8.34762 9.57615L10.1801 8.65986C10.6962 8.4018 11.3038 8.4018 11.8199 8.65986L13.6447 9.5723C14.2702 9.88507 14.6716 10.528 14.634 11.2263C14.4863 13.9739 13.8188 15.2527 12.0203 16.6716C11.4232 17.1425 10.5775 17.1414 9.97976 16.6715C8.18592 15.2614 7.49382 13.9985 7.3589 11.2177C7.32522 10.5236 7.72609 9.8869 8.34762 9.57615Z" fill="#4573FD"/>
</svg>
