<svg width="22" height="22" viewBox="0 0 22 22" fill="none" xmlns="http://www.w3.org/2000/svg">
<path fill-rule="evenodd" clip-rule="evenodd" d="M18.3333 5.49992V10.6438C18.0385 10.5769 17.7317 10.5416 17.4167 10.5416H16.5C15.4901 10.5416 14.5392 11.0171 13.9333 11.8249L12.8333 13.2916C12.4006 13.8686 11.7213 14.2083 11 14.2083C10.2787 14.2083 9.59942 13.8686 9.16666 13.2916L8.06666 11.8249C7.46075 11.0171 6.50984 10.5416 5.49999 10.5416H4.58333C4.26828 10.5416 3.96147 10.5769 3.66666 10.6438V5.49992C3.66666 3.47487 5.30828 1.83325 7.33333 1.83325H14.6667C16.6917 1.83325 18.3333 3.47487 18.3333 5.49992ZM20.1667 14.6666V17.4166C20.1667 18.9354 18.9355 20.1666 17.4167 20.1666H4.58333C3.06455 20.1666 1.83333 18.9354 1.83333 17.4166V14.6666C1.83333 13.1478 3.06455 11.9166 4.58333 11.9166H5.49999C6.07705 11.9166 6.62043 12.1883 6.96666 12.6499L8.06666 14.1166C8.75913 15.0399 9.84591 15.5833 11 15.5833C12.1541 15.5833 13.2409 15.0399 13.9333 14.1166L15.0333 12.6499C15.3796 12.1883 15.923 11.9166 16.5 11.9166H17.4167C18.9355 11.9166 20.1667 13.1478 20.1667 14.6666Z" fill="#4573FD"/>
</svg>
