<svg width="44" height="44" viewBox="0 0 44 44" fill="none" xmlns="http://www.w3.org/2000/svg">
<circle opacity="0.5" cx="22" cy="22" r="21.5" stroke="#D0D0D1"/>
<path d="M31.8181 21.4024V27.9896C31.8181 30.1002 30.1687 31.8182 28.1363 31.8182H24.4545V27.1061C24.4545 26.4778 23.9439 25.9673 23.3156 25.9673H20.6843C20.0559 25.9673 19.5552 26.4778 19.5552 27.1061V31.8182H15.8636C13.8312 31.8182 12.1818 30.1002 12.1818 27.9896V21.4024C12.1818 20.2735 12.6629 19.2034 13.4876 18.4671L19.6239 13.0874C21.0083 11.88 23.0014 11.88 24.3759 13.0874L30.5123 18.4671C31.3469 19.2034 31.8181 20.2735 31.8181 21.4024Z" fill="#1FAB71"/>
</svg>
